<?xml version="1.0" encoding="utf-8"?>
<!-- Generator: Adobe Illustrator 23.0.3, SVG Export Plug-In . SVG Version: 6.00 Build 0)  -->
<svg version="1.1" id="Layer_1" xmlns="http://www.w3.org/2000/svg" xmlns:xlink="http://www.w3.org/1999/xlink" x="0px" y="0px"
	 viewBox="0 0 500.8 61.6" style="enable-background:new 0 0 500.8 61.6;" xml:space="preserve">
<style type="text/css">
	.st0{fill:#FFFFFF;}
	.st1{fill:#00B48C;}
</style>
<g>
	<g>
		<path class="st0" d="M97.4,29c0,4.6-3.1,7.2-8.6,7.2h-4.4v7.7h-5.8V21.6h10.2C94.3,21.6,97.4,24.2,97.4,29z M91.5,29
			c0-2-1.1-2.9-3.7-2.9h-3.5v5.9h3.5C90.4,31.9,91.5,31,91.5,29z"/>
		<path class="st0" d="M121.3,21.6v22.3h-5.8v-9h-8.5v9h-5.8V21.6h5.8v8.8h8.5v-8.8H121.3z"/>
		<path class="st0" d="M147.1,32.8c0,7.2-4.1,11.5-10.9,11.5c-6.8,0-11-4.3-11-11.5c0-7.2,4.2-11.5,11-11.5
			C143,21.3,147.1,25.6,147.1,32.8z M131.2,32.8c0,4.6,1.8,6.9,5,6.9c3.2,0,5-2.4,5-6.9c0-4.6-1.8-6.9-5-6.9
			C133,25.8,131.2,28.2,131.2,32.8z"/>
		<path class="st0" d="M169,26.1h-7.3v17.8h-5.8V26.1h-7.3v-4.5H169V26.1z"/>
		<path class="st0" d="M192.3,32.8c0,7.2-4.1,11.5-10.9,11.5c-6.8,0-11-4.3-11-11.5c0-7.2,4.2-11.5,11-11.5
			C188.2,21.3,192.3,25.6,192.3,32.8z M176.4,32.8c0,4.6,1.8,6.9,5,6.9c3.2,0,5-2.4,5-6.9c0-4.6-1.8-6.9-5-6.9
			C178.2,25.8,176.4,28.2,176.4,32.8z"/>
		<path class="st0" d="M216.3,31.9v12.1h-4.1l-0.2-2.6c-1.2,1.9-3.3,2.9-6.4,2.9c-6,0-10.4-4.1-10.4-11.5c0-7.2,4.3-11.5,11.1-11.5
			c5.1,0,8,1.7,9.8,5.7l-5.4,2.1c-0.6-2.3-2.2-3.3-4.3-3.3c-3.4,0-5.3,2.3-5.3,6.9c0,4.8,1.9,7,5.5,7c2.6,0,4.6-1.2,4.6-3.7v-0.3
			h-5.5v-3.9H216.3z"/>
		<path class="st0" d="M230,35.8h-3.5v8.2h-5.7V21.6h10.7c5.4,0,8.4,2.5,8.4,7.1c0,3.2-1.5,5.4-4.3,6.5l5.6,8.8h-6.4L230,35.8z
			 M226.5,31.7h4c2.5,0,3.6-0.8,3.6-2.8c0-2-1.1-2.8-3.6-2.8h-4V31.7z"/>
		<path class="st0" d="M256.9,38.9h-7.7l-1.6,5h-5.9l7.8-22.3h7l7.8,22.3h-6L256.9,38.9z M255.6,34.9l-1.6-5.3l-1-3.5H253l-0.9,3.5
			l-1.7,5.4H255.6z"/>
		<path class="st0" d="M285.8,29c0,4.6-3.1,7.2-8.6,7.2h-4.4v7.7H267V21.6h10.2C282.8,21.6,285.8,24.2,285.8,29z M280,29
			c0-2-1.1-2.9-3.7-2.9h-3.5v5.9h3.5C278.9,31.9,280,31,280,29z"/>
		<path class="st0" d="M309.7,21.6v22.3h-5.8v-9h-8.5v9h-5.8V21.6h5.8v8.8h8.5v-8.8H309.7z"/>
		<path class="st0" d="M332.5,39.4v4.5h-17.8V21.6H332v4.5h-11.6v4.5h9.2v4.2h-9.2v4.6H332.5z"/>
		<path class="st0" d="M345.2,35.8h-3.5v8.2H336V21.6h10.7c5.4,0,8.4,2.5,8.4,7.1c0,3.2-1.5,5.4-4.3,6.5l5.6,8.8H350L345.2,35.8z
			 M341.7,31.7h4c2.5,0,3.6-0.8,3.6-2.8c0-2-1.1-2.8-3.6-2.8h-4V31.7z"/>
		<path class="st0" d="M376.2,24.2h-7.8v19.8h-2.7V24.2h-7.8v-2.5h18.3V24.2z"/>
		<path class="st0" d="M398.4,21.6v22.3h-2.7v-10h-12.1v10h-2.7V21.6h2.7v9.7h12.1v-9.7H398.4z"/>
		<path class="st0" d="M421.9,41.4v2.5h-16.2V21.6h15.7v2.5h-13v7.2h10.1v2.5h-10.1v7.5H421.9z"/>
		<path class="st0" d="M448.9,43.9h-2.6v-14l0.3-5.9h0l-7.3,19.9H437L429.6,24h0l0.3,5.9v14h-2.6V21.6h4.2l4.9,13.6l1.7,5.6h0.1
			l1.7-5.5l4.9-13.6h4.2V43.9z"/>
		<path class="st0" d="M472.4,41.4v2.5h-16.2V21.6h15.7v2.5h-13v7.2H469v2.5h-10.1v7.5H472.4z"/>
		<path class="st0" d="M493.6,26l-2.3,1.9c-1.4-2.9-3-4.1-6.3-4.1c-3.6,0-5.5,1.7-5.5,3.8c0,2.1,1.5,3.1,6.2,4c6,1,8.1,2.9,8.1,6.4
			c0,3.8-3.4,6.4-8.6,6.4c-4.7,0-7.8-2.1-9.4-4.8l2.3-1.9c1.2,2.6,3.5,4.2,7.1,4.2c3.4,0,5.7-1.3,5.7-3.7c0-1.9-1.5-3-6.2-3.9
			c-6-1-8.2-2.9-8.2-6.3c0-3.6,3.1-6.6,8.3-6.6C489,21.3,491.8,22.9,493.6,26z"/>
	</g>
	<g>
		<path class="st1" d="M4,45.1l12.5,12.5C20,61,25,62.4,29.8,61.1l17-4.6c4.7-1.3,8.5-5,9.7-9.7l4.6-17C62.4,25,61,20,57.6,16.5
			L45.1,4c-3.5-3.5-8.5-4.8-13.3-3.6L14.8,5C10,6.3,6.3,10,5,14.8l-4.6,17C-0.8,36.5,0.6,41.6,4,45.1z"/>
		<g>
			<g>
				<path class="st0" d="M53.8,17.7l-7,26.1l7.6-2l3-11C58.5,26.1,57.2,21.1,53.8,17.7L53.8,17.7z"/>
				<path class="st0" d="M51.9,15.8l-8.1-8.1C40.4,4.3,35.5,3,30.8,4.2l0,0l19.1,19.1L51.9,15.8z"/>
				<path class="st0" d="M33.1,56.8l11-3c4.7-1.2,8.3-4.9,9.6-9.6v0l-26.1,7L33.1,56.8z"/>
				<path class="st0" d="M28.2,4.9l-11,3c-4.7,1.2-8.3,4.9-9.6,9.6l0,0.1l26.1-7L28.2,4.9z"/>
				<path class="st0" d="M7,19.9L4,31C2.8,35.7,4.1,40.6,7.5,44l0,0l7-26.1L7,19.9z"/>
				<path class="st0" d="M9.4,45.9l8.1,8.1c3.4,3.4,8.4,4.7,13.1,3.5l0,0L11.4,38.4L9.4,45.9z"/>
			</g>
			<polygon class="st0" points="34,43.8 34,26.9 40.4,26.9 40.4,21.1 20.7,21.1 20.7,26.9 27,26.9 27,43.8 			"/>
		</g>
	</g>
</g>
</svg>
